<svg xmlns="http://www.w3.org/2000/svg" viewBox="0 0 16 16">
	<path fill="#979BB0" fill-rule="evenodd" d="M5.333 2.667H4c-.736 0-1.333.597-1.333 1.333v1.333c0 .737.597 1.334 1.333 1.334h1.333c.737 0 1.334-.597 1.334-1.334V4c0-.736-.597-1.333-1.334-1.333ZM4 2a2 2 0 0 0-2 2v1.333a2 2 0 0 0 2 2h1.333a2 2 0 0 0 2-2V4a2 2 0 0 0-2-2H4Zm8 .667h-1.333c-.737 0-1.334.597-1.334 1.333v1.333c0 .737.597 1.334 1.334 1.334H12c.736 0 1.333-.597 1.333-1.334V4c0-.736-.597-1.333-1.333-1.333ZM10.667 2a2 2 0 0 0-2 2v1.333a2 2 0 0 0 2 2H12a2 2 0 0 0 2-2V4a2 2 0 0 0-2-2h-1.333ZM12 9.333h-1.333c-.737 0-1.334.597-1.334 1.334V12c0 .736.597 1.333 1.334 1.333H12c.736 0 1.333-.597 1.333-1.333v-1.333c0-.737-.597-1.334-1.333-1.334Zm-1.333-.666a2 2 0 0 0-2 2V12a2 2 0 0 0 2 2H12a2 2 0 0 0 2-2v-1.333a2 2 0 0 0-2-2h-1.333Zm-5.334.666H4c-.736 0-1.333.597-1.333 1.334V12c0 .736.597 1.333 1.333 1.333h1.333c.737 0 1.334-.597 1.334-1.333v-1.333c0-.737-.597-1.334-1.334-1.334ZM4 8.667a2 2 0 0 0-2 2V12a2 2 0 0 0 2 2h1.333a2 2 0 0 0 2-2v-1.333a2 2 0 0 0-2-2H4Z" clip-rule="evenodd" />
</svg>
